Coordinates
version=1
nRows=10
nColumns=27
inDegrees=yes

Units are S.I. units (second, meters, Newtons, ...)
If the header above contains a line with 'inDegrees', this indicates whether rotational values are in degrees (yes) or radians (no).

endheader
time	pelvis_rotation	pelvis_tilt	pelvis_list	pelvis_tx	pelvis_ty	pelvis_tz	hip_flexion_r	hip_adduction_r	hip_rotation_r	knee_angle_r	knee_rotation_r	knee_adduction_r	knee_angle_r_beta	ankle_angle_r	subtalar_angle_r	mtp_angle_r	hip_flexion_l	hip_adduction_l	hip_rotation_l	knee_angle_l	knee_rotation_l	knee_adduction_l	knee_angle_l_beta	ankle_angle_l	subtalar_angle_l	mtp_angle_l
      8.11000000	      6.33459889	    -45.73347995	      5.94964839	     -0.12287255	      0.78266576	     -1.17892200	     98.14923448	    -12.09993472	    -11.53292806	     64.49948552	     -8.80124609	      9.12284726	      1.12572839	      8.14958310	     -3.76358892	      0.00000000	     95.66012867	     -6.81961050	    -14.36249320	     59.08624262	     -8.10719632	     -9.50618906	      1.03124948	      6.49838144	      4.54964812	      0.00000000
      8.11500000	      6.78894217	    -45.75858755	      6.10584127	     -0.12288046	      0.78393411	     -1.17901655	     97.97704519	    -12.52769317	    -11.83083456	     64.24023079	     -8.78846282	      9.15062139	      1.12120354	      8.16685316	     -3.54101134	      0.00000000	     95.50399982	     -6.37934322	    -14.12008738	     58.67137536	     -8.01899347	     -9.49076920	      1.02400868	      6.30710467	      4.41529510	      0.00000000
      8.12000000	      6.87384172	    -45.70673246	      6.38598384	     -0.12291558	      0.78514394	     -1.17902358	     97.82602315	    -12.60969390	    -11.64950275	     63.98605349	     -8.70270808	      9.16373361	      1.11676731	      8.04480968	     -3.50389106	      0.00000000	     95.17463306	     -6.30633002	    -14.39989750	     58.27894267	     -7.97585249	     -9.49415505	      1.01715943	      6.23438411	      4.48182883	      0.00000000
      8.12500000	      6.81373423	    -46.09854388	      6.18336462	     -0.12391472	      0.78531731	     -1.17849600	     98.13473681	    -12.52482190	    -11.11039534	     63.91219397	     -8.01680617	      8.60164107	      1.11547822	      8.00577597	     -3.40568437	      0.00000000	     95.59719427	     -6.49364941	    -13.52135707	     58.28874920	     -7.26465276	     -9.07263818	      1.01733059	      6.11684221	      4.40584991	      0.00000000
      8.13000000	      6.67720444	    -45.61999382	      6.21334512	     -0.12280327	      0.78774282	     -1.17849219	     97.24011469	    -12.44821900	    -11.86310363	     63.27212375	     -8.62230024	      9.18542281	      1.10430688	      7.84805123	     -3.41935238	      0.00000000	     94.60995178	     -6.48014896	    -14.40775805	     57.59631700	     -7.80453822	     -9.48837340	      1.00524537	      6.04419856	      4.59116590	      0.00000000
      8.13500000	      6.27917535	    -45.53355817	      5.90611149	     -0.12268282	      0.78908564	     -1.17794710	     96.83730090	    -12.08513967	    -11.99593584	     62.84017369	     -8.61357875	      9.17145680	      1.09676793	      7.70169502	     -3.44201776	      0.00000000	     94.27003896	     -6.85787008	    -14.43513813	     57.30724819	     -7.70266751	     -9.47994100	      1.00020017	      6.06581332	      4.82901804	      0.00000000
      8.14000000	      6.84860369	    -45.59230816	      6.25505450	     -0.12274734	      0.79023969	     -1.17826393	     96.77903507	    -12.62669138	    -12.11162271	     62.65158544	     -8.51937268	      9.21257672	      1.09347645	      7.71227906	     -3.25173997	      0.00000000	     94.13339868	     -6.32351406	    -14.30162246	     56.86428237	     -7.60116592	     -9.47865901	      0.99246895	      5.81107096	      4.56952698	      0.00000000
      8.14500000	      6.86936502	    -45.54878253	      6.29319057	     -0.12269951	      0.79151208	     -1.17809598	     96.52392402	    -12.64806418	    -12.14937566	     62.32892042	     -8.45381711	      9.21750751	      1.08784488	      7.61930768	     -3.20168108	      0.00000000	     93.83378765	     -6.30291108	    -14.32242881	     56.48133691	     -7.49867854	     -9.47589776	      0.98578530	      5.70412643	      4.57060369	      0.00000000
      8.15000000	      6.42740638	    -45.44749034	      6.03132497	     -0.12257686	      0.79282520	     -1.17756251	     96.12506782	    -12.24504488	    -12.14190092	     61.90249602	     -8.38706845	      9.21781311	      1.08040237	      7.45815451	     -3.30062365	      0.00000000	     93.45417297	     -6.72316818	    -14.44866849	     56.18356926	     -7.38867523	     -9.47989639	      0.98058827	      5.68629437	      4.75429089	      0.00000000
      8.15500000	      6.91489775	    -45.49664756	      6.20489531	     -0.12255143	      0.79402552	     -1.17773482	     95.97975257	    -12.70764389	    -12.41192450	     61.66555211	     -8.32718194	      9.22833786	      1.07626692	      7.47310915	     -3.06631957	      0.00000000	     93.31768994	     -6.26684650	    -14.17342196	     55.75687974	     -7.26168647	     -9.46945590	      0.97314113	      5.50035082	      4.55534088	      0.00000000
